<?xml version="1.0" encoding="UTF-8"?>
<svg xmlns="http://www.w3.org/2000/svg" viewBox="0 0 292.32 103.77">
  <defs>
    <style>
      .cls-1 {
        fill: none;
        stroke: #9098cc;
        stroke-miterlimit: 10;
        stroke-width: 6px;
      }
    </style>
  </defs>
  <g id="Layer_1" data-name="Layer 1">
    <path class="cls-1" d="m117.45,92.42l1.16-78.49s-21.74-.79-30.31,3.4c-17.01,8.32-17.77,41.5-6.08,42.85,5.47.63,14.28.24,20.56,0,4.64-.18-25.36,2.91-25.36,32.25"/>
    <path class="cls-1" d="m223.4,20.01c-6.12-8.9-12.03.31-7.89,4.89,8.15,9.01,20.48-3.52,12.48-11.27-4.24-4.11-15.54-9.03-19.48,1.23-10.84,28.18,26.7,74.49,25.46,73.06-.66-.77-8.04-9.81-29.13-36.81-10.1-12.94-32.49-43.24-30.75-40.61.92,1.4,12.7,15.78,15.45,25.81,5.11,18.61,6.4,53.2-17.92,64.75"/>
    <path class="cls-1" d="m10,81.93c8.75,6.33,11.23-4.33,5.79-7.25-10.7-5.76-18.11,10.19-7.98,14.8,5.37,2.45,12.8.45,12.8.45l.99-.43c13.94-6.71,12.55-71.68,10.84-75.88-2.67-6.57,29.23,76.67,29.69,77.16,1.52,1.63-18.21-45.21,2.13-78.69,2.82-4.65,6.97-8.54,8.56-9.58"/>
  </g>
  <g id="Layer_4" data-name="Layer 4">
    <path class="cls-1" d="m128.72,13.92l-1.23,75.59c32.99,0,44.14-2.2,44.14-37.8,0-23.92-6.24-37.8-42.91-37.8Z"/>
  </g>
  <g id="Layer_10" data-name="Layer 10">
    <path class="cls-1" d="m78.75,9.97s-18.1,13.89-13.5,50.21"/>
    <path class="cls-1" d="m65.92,63.41s.87,6.22,3.37,12.58"/>
  </g>
  <g id="Layer_12" data-name="Layer 12">
    <path class="cls-1" d="m168.07,92.88c1.05-.4,18.18-10.38,13.63-45.46"/>
    <path class="cls-1" d="m181.13,43.86c-.73-3.68-1.75-7.58-3.12-11.7"/>
  </g>
  <g id="Layer_6" data-name="Layer 6">
    <path class="cls-1" d="m265.36,23.13c-26.38-4.91-46.45,16.77-35.52,40.77,13.55,29.74,37.23,26.93,51,12.09"/>
    <path class="cls-1" d="m266.8,53.61c-4.62,3.19-11.63,8.76-25.95,5.65"/>
  </g>
</svg>